<svg xmlns="http://www.w3.org/2000/svg" width="223.258" height="339.933" viewBox="0 0 223.258 339.933"><path d="M109.239,43.39a33.382,33.382,0,0,0-2.254,2.739,29.021,29.021,0,0,0-4.963,12.3L98.36,88.071a226.1,226.1,0,0,1,3.828,24.587l21.622-9.79Q119.906,68.522,109.239,43.39Z" transform="translate(50.466 22.268)" fill="#1a1a1a"/><path d="M153.547,144.985h0l-3.858,1.785-.409.182h-.136c-5.023,2.254-10.032,4.282-14.964,6.052h-.121c-1.77.605-3.541,1.18-5.281,1.71A251.425,251.425,0,0,0,119.412,99.2a175.519,175.519,0,0,0,22.605-7.732l1.513-11.908v-.424a36.889,36.889,0,0,1,12.1-22.2,121.211,121.211,0,0,0-9.548-15.9Q116.386-.482,58.9,0L0,.5,2.86,339.929l56.15-.469a99.3,99.3,0,0,0,49.584-12.846,111.166,111.166,0,0,0,37.191-35.588Q161.052,268.058,169,235.8a289.679,289.679,0,0,0,7.565-71.553q-.136-15.358-1.286-29.308ZM139.354,79.771a164.925,164.925,0,0,1-23.347,8.14A246.449,246.449,0,0,0,90.875,34.288C112.482,41.506,128.793,56.44,139.354,79.771Zm-59.01,93.7a179.859,179.859,0,0,0,37.131-4.01,243.893,243.893,0,0,1-8.11,60.19,163.412,163.412,0,0,1-57.845,1.286,242.453,242.453,0,0,1-8.458-61.7,176.318,176.318,0,0,0,37.3,4.237ZM43.2,157.362a238.762,238.762,0,0,1,8.957-55.2A151.958,151.958,0,0,0,78.8,104.692a161.9,161.9,0,0,0,29.444-3.026,239.067,239.067,0,0,1,9.078,55.424,174.442,174.442,0,0,1-74.126.272Zm61.476-67.181a149.083,149.083,0,0,1-49.039.605A234.056,234.056,0,0,1,80.193,38.979a232.544,232.544,0,0,1,24.482,51.2ZM21.017,29.2l36.722-.3a111.107,111.107,0,0,1,14.526,1.256,240.669,240.669,0,0,0-28.007,58.3,143.862,143.862,0,0,1-22.8-7.444Zm.545,64.336a151.1,151.1,0,0,0,19.367,6.052,250.763,250.763,0,0,0-9.245,54.94c-3.6-1.059-6.945-2.043-9.623-3.026Zm.59,70.267c2.92,1.014,5.7,1.846,9.366,2.875a250.808,250.808,0,0,0,7.112,61.613A153.369,153.369,0,0,1,22.7,223.408Zm35.618,147.01-34.377.3-.62-75.412a161.906,161.906,0,0,0,19.67,5.356,301.647,301.647,0,0,0,30.05,68.088,98.351,98.351,0,0,1-14.722,1.664Zm-2.557-67.6a158.878,158.878,0,0,0,22.575,1.906,173.04,173.04,0,0,0,27.659-2.557,291.574,291.574,0,0,1-25.253,56.574,292.618,292.618,0,0,1-24.981-55.923ZM129.64,272.93a85.1,85.1,0,0,1-30.625,28.083,82.894,82.894,0,0,1-8.382,3.117,299.874,299.874,0,0,0,27.629-64.049,184.988,184.988,0,0,0,29.49-10.092C143.485,246.8,137.554,261.265,129.64,272.93Zm20.729-56.665a171.445,171.445,0,0,1-28.279,10.773,250.354,250.354,0,0,0,6.839-60.523,183.079,183.079,0,0,0,25.3-9.154c0,2.784.408,5.2.439,8.08a270.249,270.249,0,0,1-4.3,50.824Z" transform="translate(0 0.004)" fill="#1a1a1a"/><path d="M159.1,37.127a36.632,36.632,0,0,0-21.592-7.066A34.271,34.271,0,0,0,109.38,44.223a33.439,33.439,0,0,0-5.765,14.193v.106L95.49,124.174l65.365-31.336c4.9-3.631,5.22-3.873,6.945-6.249C179.1,71,175.2,48.808,159.1,37.127ZM140.565,69.991a8.171,8.171,0,1,1,5.787-2.388,8.186,8.186,0,0,1-5.787,2.388Z" transform="translate(48.994 15.428)" fill="#1a1a1a"/></svg>