<svg xmlns="http://www.w3.org/2000/svg" viewBox="0 0 147.55 224.66"><defs><style>.cls-1{fill:#f2f1f1;}</style></defs><title>logo_newUnsalOztorun Productions</title><g id="Layer_2" data-name="Layer 2"><g id="Layer_1-2" data-name="Layer 1"><path class="cls-1" d="M105.55,43.39a22.06,22.06,0,0,0-1.49,1.81,19.18,19.18,0,0,0-3.28,8.13L98.36,72.92a149.43,149.43,0,0,1,2.53,16.25l14.29-6.47Q112.6,60,105.55,43.39Z"/><path class="cls-1" d="M101.48,95.82h0L98.93,97l-.27.12-.09,0c-3.32,1.49-6.63,2.83-9.89,4l-.08,0h0c-1.17.4-2.34.78-3.49,1.13a166.17,166.17,0,0,0-6.19-36.69,116,116,0,0,0,14.94-5.11l1-7.87v-.14l0-.14a24.38,24.38,0,0,1,8-14.67,80.11,80.11,0,0,0-6.31-10.51Q76.92-.32,38.93,0L0,.33,1.89,224.66,39,224.35a65.63,65.63,0,0,0,32.77-8.49,73.47,73.47,0,0,0,24.58-23.52q10.09-15.18,15.34-36.5a191.45,191.45,0,0,0,5-47.29q-.09-10.15-.85-19.37ZM92.1,52.72A109,109,0,0,1,76.67,58.1,162.88,162.88,0,0,0,60.06,22.66C74.34,27.43,85.12,37.3,92.1,52.72Zm-39,61.93A118.87,118.87,0,0,0,77.64,112a161.19,161.19,0,0,1-5.36,39.78,108,108,0,0,1-38.23.85,160.24,160.24,0,0,1-5.59-40.78A116.53,116.53,0,0,0,53.11,114.65ZM28.55,104a157.8,157.8,0,0,1,5.92-36.48,100.43,100.43,0,0,0,17.61,1.67,107,107,0,0,0,19.46-2,158,158,0,0,1,6,36.63A115.29,115.29,0,0,1,28.55,104ZM69.18,59.6A98.53,98.53,0,0,1,36.77,60,154.69,154.69,0,0,1,53,25.76,153.69,153.69,0,0,1,69.18,59.6ZM13.89,19.3l24.27-.2a73.43,73.43,0,0,1,9.6.83A159.06,159.06,0,0,0,29.25,58.46a95.08,95.08,0,0,1-15.07-4.92Zm.36,42.52a99.86,99.86,0,0,0,12.8,4,165.73,165.73,0,0,0-6.11,36.31c-2.38-.7-4.59-1.35-6.36-2Zm.39,46.44c1.93.67,3.77,1.22,6.19,1.9a165.76,165.76,0,0,0,4.7,40.72A101.36,101.36,0,0,1,15,147.65Zm23.54,97.16-22.72.2-.41-49.84a107,107,0,0,0,13,3.54,199.36,199.36,0,0,0,19.86,45A65,65,0,0,1,38.18,205.42Zm-1.69-44.68A105,105,0,0,0,51.41,162a114.36,114.36,0,0,0,18.28-1.69A192.7,192.7,0,0,1,53,197.7,193.39,193.39,0,0,1,36.49,160.74Zm49.19,19.64a56.24,56.24,0,0,1-20.24,18.56A54.78,54.78,0,0,1,59.9,201a198.19,198.19,0,0,0,18.26-42.33A122.26,122.26,0,0,0,97.65,152C94.83,163.11,90.91,172.67,85.68,180.38Zm13.7-37.45a113.31,113.31,0,0,1-18.69,7.12,165.46,165.46,0,0,0,4.52-40A121,121,0,0,0,101.93,104c0,1.84.27,3.44.29,5.34A178.61,178.61,0,0,1,99.38,142.93Z"/><path class="cls-1" d="M137.53,34.73a24.21,24.21,0,0,0-14.27-4.67,22.65,22.65,0,0,0-18.59,9.36,22.1,22.1,0,0,0-3.81,9.38l0,.07L95.49,92.26l43.2-20.71c3.24-2.4,3.45-2.56,4.59-4.13C150.75,57.12,148.17,42.45,137.53,34.73ZM125.28,56.45a5.41,5.41,0,1,1,5.41-5.4A5.4,5.4,0,0,1,125.28,56.45Z"/></g></g></svg>